<svg xmlns="http://www.w3.org/2000/svg" viewBox="0 0 128 128" role="img" aria-label="Codex Chat">
  <defs>
    <linearGradient id="edge" x1="22" y1="14" x2="108" y2="116" gradientUnits="userSpaceOnUse">
      <stop stop-color="#61f6c6"/>
      <stop offset="0.56" stop-color="#6bb8ff"/>
      <stop offset="1" stop-color="#c8fff0"/>
    </linearGradient>
    <linearGradient id="core" x1="38" y1="26" x2="90" y2="104" gradientUnits="userSpaceOnUse">
      <stop stop-color="#d9fff5"/>
      <stop offset="0.52" stop-color="#61f6c6"/>
      <stop offset="1" stop-color="#6bb8ff"/>
    </linearGradient>
    <filter id="glow" x="-30%" y="-30%" width="160%" height="160%">
      <feGaussianBlur stdDeviation="2.8" result="blur"/>
      <feColorMatrix in="blur" type="matrix" values="0 0 0 0 0.38 0 0 0 0 0.96 0 0 0 0 0.78 0 0 0 0.65 0"/>
      <feMerge>
        <feMergeNode/>
        <feMergeNode in="SourceGraphic"/>
      </feMerge>
    </filter>
  </defs>

  <rect width="128" height="128" rx="28" fill="#030506"/>
  <path d="M21 34 34 21h60l13 13v60l-13 13H34L21 94V34Z" fill="#081014" stroke="url(#edge)" stroke-width="2.5"/>
  <path d="M31 38h16M81 38h16M31 90h16M81 90h16" stroke="#61f6c6" stroke-width="3" stroke-linecap="round" opacity="0.8"/>
  <path d="M45 50c8-12 28-14 42-4l-8 10c-9-6-20-5-26 2-7 8-5 21 4 27 7 5 17 5 25-1l8 10c-13 11-34 10-46-2-13-13-13-30 1-42Z" fill="none" stroke="url(#core)" stroke-width="10" stroke-linecap="round" stroke-linejoin="round" filter="url(#glow)"/>
  <path d="M67 66h29l-12 12" fill="none" stroke="#d9fff5" stroke-width="7" stroke-linecap="round" stroke-linejoin="round" filter="url(#glow)"/>
  <path d="M44 111h40l11-11" fill="none" stroke="#6bb8ff" stroke-width="3" stroke-linecap="round" opacity="0.72"/>
</svg>
